<svg width="24" height="24" viewBox="0 0 24 24" fill="none" xmlns="http://www.w3.org/2000/svg">
<path d="M4.65729 11.7536C3.01799 15.4356 4.57305 18.798 7.90093 20.2796C10.1563 21.2838 12.1089 21.1004 14.0232 19.8569C15.6143 18.9575 17.1918 17.1334 18.103 16.0844C18.7816 15.3243 19.6536 14.3632 19.9336 13.9041C20.2578 13.3881 20.1458 12.8119 19.6688 12.5038C19.1121 12.1411 18.5448 12.2905 17.9421 12.8164L15.7172 14.8213C15.5301 14.9868 15.4114 15.02 15.301 14.9709C15.1827 14.9182 15.1279 14.8077 15.2311 14.5761L19.0359 6.03021C19.2991 5.43919 19.0609 4.8068 18.4852 4.5505C17.9096 4.29419 17.2767 4.54834 17.0171 5.13138L14.1759 11.5128C14.0151 11.3647 13.8507 11.2245 13.6591 11.0818L14.0533 10.1964C14.3129 9.61336 13.909 9.35321 13.3334 9.09691C12.7577 8.8406 12.2941 8.71453 12.0345 9.29757L11.6759 10.1031C11.4637 10.0278 11.248 9.96045 11.0288 9.90111L11.2542 9.39484C11.5138 8.81181 11.1134 8.54367 10.5456 8.29087C9.96997 8.03457 9.50284 7.91649 9.24326 8.49952L8.76894 9.56486C8.5169 9.55792 8.26997 9.58196 8.03092 9.60951L10.2747 4.56983C10.5343 3.98679 10.2962 3.35441 9.72837 3.10161C9.1527 2.8453 8.5155 3.08796 8.25592 3.671L4.65729 11.7536Z" fill="#111827"/>
</svg>
