<svg width="132" height="69" viewBox="0 0 132 69" fill="none" xmlns="http://www.w3.org/2000/svg">
<path d="M5.83864 33.4019H12.0625L15.1592 19.2065H15.2818L18.2865 33.4019H24.5104L29.4159 12.2467V11.9401H24.2957L21.475 26.7487H21.3524L17.8572 11.9401H12.5224L9.08856 26.7487H8.96593L6.11458 11.9401H0.933105V12.2467L5.83864 33.4019Z" fill="#1F2937"/>
<path d="M33.6524 33.6778C35.6453 33.6778 37.0556 32.9726 37.9448 31.9609H38.0674L38.4047 33.4019H42.6357V22.855C42.6357 19.5131 39.999 17.091 35.6146 17.091C30.8931 17.091 28.7162 19.6664 28.7162 22.671H33.1312C33.1312 21.6899 33.9897 20.8928 35.4613 20.8928C37.2089 20.8928 37.9141 21.7512 37.9141 22.855V24.1733C37.2703 23.9587 35.676 23.7134 34.4802 23.7134C30.0653 23.7134 28.0417 25.6757 28.0417 28.6496C28.0417 31.501 30.0346 33.6778 33.6524 33.6778ZM34.8482 29.9987C33.4378 29.9987 32.702 29.3242 32.702 28.4044C32.702 27.5459 33.4991 26.8714 35.0321 26.8714C35.9519 26.8714 36.933 26.994 37.9141 27.3926V27.5459C37.9141 28.8643 36.7797 29.9987 34.8482 29.9987Z" fill="#1F2937"/>
<path d="M44.1692 33.4019H48.8907V24.5106C48.8907 22.579 50.1171 21.3833 51.8034 21.3833C53.6736 21.3833 54.5014 22.4871 54.5014 24.3266V33.4019H59.223V22.855C59.223 19.2985 56.8316 17.091 53.2751 17.091C51.1902 17.091 49.7799 17.8575 48.8907 18.8999H48.7681L48.4002 17.3669H44.1692V33.4019Z" fill="#1F2937"/>
<path d="M60.7577 33.4019H65.4793V24.5106C65.4793 22.579 66.7057 21.3833 68.3919 21.3833C70.2622 21.3833 71.09 22.4871 71.09 24.3266V33.4019H75.8116V22.855C75.8116 19.2985 73.4201 17.091 69.8636 17.091C67.7787 17.091 66.3684 17.8575 65.4793 18.8999H65.3566L64.9887 17.3669H60.7577V33.4019Z" fill="#1F2937"/>
<path d="M82.1904 33.6778C84.1833 33.6778 85.5937 32.9726 86.4828 31.9609H86.6054L86.9427 33.4019H91.1737V22.855C91.1737 19.5131 88.537 17.091 84.1527 17.091C79.4311 17.091 77.2542 19.6664 77.2542 22.671H81.6692C81.6692 21.6899 82.5277 20.8928 83.9994 20.8928C85.747 20.8928 86.4521 21.7512 86.4521 22.855V24.1733C85.8083 23.9587 84.214 23.7134 83.0182 23.7134C78.6033 23.7134 76.5797 25.6757 76.5797 28.6496C76.5797 31.501 78.5726 33.6778 82.1904 33.6778ZM83.3862 29.9987C81.9758 29.9987 81.24 29.3242 81.24 28.4044C81.24 27.5459 82.0371 26.8714 83.5701 26.8714C84.4899 26.8714 85.471 26.994 86.4521 27.3926V27.5459C86.4521 28.8643 85.3177 29.9987 83.3862 29.9987Z" fill="#1F2937"/>
<path d="M16.2016 40.2413V48.4581H7.58624V40.2413H2.77268V61.7031H7.58624V52.7811H16.2016V61.7031H21.0152V40.2413H16.2016Z" fill="#1F2937"/>
<path d="M28.3229 61.979C30.3158 61.979 31.7261 61.2738 32.6153 60.2621H32.7379L33.0752 61.7031H37.3062V51.1562C37.3062 47.8143 34.6695 45.3922 30.2851 45.3922C25.5636 45.3922 23.3867 47.9676 23.3867 50.9722H27.8017C27.8017 49.9911 28.6602 49.194 30.1318 49.194C31.8794 49.194 32.5846 50.0524 32.5846 51.1562V52.4745C31.9408 52.2599 30.3465 52.0146 29.1507 52.0146C24.7357 52.0146 22.7122 53.9768 22.7122 56.9508C22.7122 59.8022 24.7051 61.979 28.3229 61.979ZM29.5187 58.2999C28.1083 58.2999 27.3725 57.6253 27.3725 56.7056C27.3725 55.8471 28.1696 55.1726 29.7026 55.1726C30.6224 55.1726 31.6035 55.2952 32.5846 55.6938V55.8471C32.5846 57.1655 31.4502 58.2999 29.5187 58.2999Z" fill="#1F2937"/>
<path d="M38.8397 61.7031H43.5612V52.8118C43.5612 50.8802 44.7876 49.6845 46.4739 49.6845C48.3441 49.6845 49.1719 50.7882 49.1719 52.6278V61.7031H53.8935V51.1562C53.8935 47.5997 51.5021 45.3922 47.9456 45.3922C45.8607 45.3922 44.4504 46.1586 43.5612 47.2011H43.4386L43.0707 45.6681H38.8397V61.7031Z" fill="#1F2937"/>
<path d="M62.4186 69.0001C66.8949 69.0001 70.2674 66.486 70.2674 62.4696V45.6681H66.0364L65.5459 47.2011H65.4232C64.6567 46.2813 63.4303 45.3922 61.1615 45.3922C57.1145 45.3922 54.6617 48.8874 54.6617 53.7009C54.6617 58.4838 57.1145 61.979 61.1615 61.979C63.4303 61.979 64.6567 61.0899 65.4232 60.1701H65.5459V62.4082C65.5459 63.8493 64.5034 64.953 62.4186 64.953C60.9469 64.953 59.8738 64.1558 59.7512 63.0828H55.1216C55.2136 66.7006 58.0956 69.0001 62.4186 69.0001ZM62.6025 57.84C60.2111 57.84 59.4446 55.9391 59.4446 53.7009C59.4446 51.4628 60.2724 49.5312 62.6025 49.5312C64.9327 49.5312 65.7605 51.4628 65.7605 53.7009C65.7605 55.9391 64.994 57.84 62.6025 57.84Z" fill="#1F2937"/>
<path d="M88.9849 61.979C95.8833 61.979 99.4092 57.1041 99.4092 50.9722C99.4092 44.8096 95.8833 39.9654 88.9849 39.9654C82.0558 39.9654 78.5606 44.8096 78.5606 50.9722C78.5606 57.1041 82.0558 61.979 88.9849 61.979ZM88.9849 57.6253C85.4284 57.6253 83.4662 55.2952 83.4662 50.9722C83.4662 46.6492 85.3977 44.3191 88.9849 44.3191C92.5414 44.3191 94.5036 46.6492 94.5036 50.9722C94.5036 55.2952 92.5414 57.6253 88.9849 57.6253Z" fill="#1F2937"/>
<path d="M110.607 45.6681V54.59C110.607 56.4296 109.841 57.5334 108.001 57.5334C106.131 57.5334 105.364 56.4296 105.364 54.59V45.6681H100.643V55.2952C100.643 58.6984 102.728 61.979 107.97 61.979C107.97 61.979 107.97 61.979 108.001 61.979C113.244 61.979 115.329 58.6984 115.329 55.2952V45.6681H110.607Z" fill="#1F2937"/>
<path d="M124.223 61.979C125.725 61.979 126.982 61.7031 127.473 61.5191V57.5947H127.166C126.676 57.7786 126.155 57.8706 125.633 57.8706C124.223 57.8706 123.579 57.2268 123.579 55.7244V49.6845H127.412V45.6681H123.579V41.4677H123.273L119.072 42.3262V45.6681H116.252V49.6845H118.858V56.8589C118.858 59.7715 120.513 61.979 124.223 61.979Z" fill="#1F2937"/>
<path d="M101.045 17.3244C97.9376 24.3028 100.885 30.6756 107.192 33.4839C111.467 35.3871 115.168 35.0396 118.796 32.6827C121.812 30.9781 124.802 27.5208 126.529 25.5326C127.815 24.0919 129.467 22.2703 129.998 21.4001C130.613 20.4222 130.4 19.3301 129.496 18.7462C128.441 18.0588 127.366 18.3418 126.224 19.3387L122.007 23.1385C121.652 23.4522 121.427 23.5153 121.218 23.4221C120.994 23.3223 120.89 23.1128 121.085 22.6739L128.297 6.47663C128.796 5.35644 128.344 4.15787 127.253 3.67209C126.162 3.1863 124.963 3.66801 124.471 4.77305L119.086 16.868C118.781 16.5872 118.469 16.3215 118.106 16.051L118.853 14.3729C119.345 13.2679 118.58 12.7748 117.489 12.289C116.398 11.8032 115.519 11.5643 115.027 12.6693L114.347 14.196C113.945 14.0533 113.536 13.9257 113.121 13.8132L113.548 12.8537C114.04 11.7487 113.281 11.2404 112.205 10.7613C111.114 10.2755 110.229 10.0517 109.737 11.1568L108.838 13.1759C108.36 13.1628 107.892 13.2083 107.439 13.2606L111.692 3.70873C112.184 2.60369 111.732 1.40512 110.656 0.925985C109.565 0.440199 108.357 0.900109 107.865 2.00515L101.045 17.3244Z" fill="#1F2937"/>
</svg>
